<svg width="46" height="46" viewBox="0 0 46 46" fill="none" xmlns="http://www.w3.org/2000/svg">
<path d="M43.7 23C44.9703 23 46.0119 24.0323 45.8851 25.2962C45.5101 29.0339 44.2237 32.6354 42.1238 35.7781C39.5965 39.5604 36.0044 42.5084 31.8017 44.2492C27.599 45.99 22.9745 46.4455 18.5129 45.5581C14.0514 44.6706 9.95315 42.4801 6.73654 39.2635C3.51994 36.0468 1.3294 31.9486 0.441939 27.4871C-0.445522 23.0255 0.00995523 18.401 1.75077 14.1983C3.49159 9.99558 6.43955 6.40347 10.2219 3.8762C13.3646 1.7763 16.9661 0.48991 20.7038 0.114896C21.9677 -0.0119172 23 1.02975 23 2.3C23 3.57026 21.9663 4.58518 20.7059 4.74356C17.8796 5.0987 15.1633 6.1068 12.7775 7.70096C9.75164 9.72278 7.39327 12.5965 6.00062 15.9586C4.60796 19.3208 4.24358 23.0204 4.95355 26.5897C5.66352 30.1589 7.41595 33.4375 9.98924 36.0108C12.5625 38.584 15.8411 40.3365 19.4103 41.0464C22.9796 41.7564 26.6792 41.392 30.0414 39.9994C33.4035 38.6067 36.2772 36.2484 38.299 33.2225C39.8932 30.8367 40.9013 28.1204 41.2564 25.2941C41.4148 24.0337 42.4297 23 43.7 23Z" fill="#8B54F7"/>
</svg>
