<svg width="37" height="38" viewBox="0.2616424560546875 0.25 36.476715087890625 37.5" fill="none" xmlns="http://www.w3.org/2000/svg">
<path d="M18.4857 25.65C16.722 25.65 15.0306 24.9494 13.7835 23.7023C12.5364 22.4551 11.8357 20.7637 11.8357 19C11.8357 17.2363 12.5364 15.5449 13.7835 14.2977C15.0306 13.0506 16.722 12.35 18.4857 12.35C20.2494 12.35 21.9409 13.0506 23.188 14.2977C24.4351 15.5449 25.1357 17.2363 25.1357 19C25.1357 20.7637 24.4351 22.4551 23.188 23.7023C21.9409 24.9494 20.2494 25.65 18.4857 25.65ZM32.6027 20.843C32.6787 20.235 32.7357 19.627 32.7357 19C32.7357 18.373 32.6787 17.746 32.6027 17.1L36.6117 14.003C36.9727 13.718 37.0677 13.205 36.8397 12.787L33.0397 6.213C32.8117 5.795 32.2987 5.624 31.8807 5.795L27.1497 7.695C26.1617 6.95401 25.1357 6.308 23.9387 5.833L23.2357 0.798004C23.1971 0.574216 23.0806 0.371315 22.9067 0.225251C22.7328 0.0791879 22.5128 -0.000607571 22.2857 3.48359e-06H14.6857C14.2107 3.48359e-06 13.8117 0.342004 13.7357 0.798004L13.0327 5.833C11.8357 6.308 10.8097 6.95401 9.82173 7.695L5.09073 5.795C4.67273 5.624 4.15973 5.795 3.93173 6.213L0.13173 12.787C-0.11527 13.205 -0.00126977 13.718 0.35973 14.003L4.36873 17.1C4.29273 17.746 4.23573 18.373 4.23573 19C4.23573 19.627 4.29273 20.235 4.36873 20.843L0.35973 23.997C-0.00126977 24.282 -0.11527 24.795 0.13173 25.213L3.93173 31.787C4.15973 32.205 4.67273 32.357 5.09073 32.205L9.82173 30.286C10.8097 31.046 11.8357 31.692 13.0327 32.167L13.7357 37.202C13.8117 37.658 14.2107 38 14.6857 38H22.2857C22.7607 38 23.1597 37.658 23.2357 37.202L23.9387 32.167C25.1357 31.673 26.1617 31.046 27.1497 30.286L31.8807 32.205C32.2987 32.357 32.8117 32.205 33.0397 31.787L36.8397 25.213C37.0677 24.795 36.9727 24.282 36.6117 23.997L32.6027 20.843Z" fill="white"/>
</svg>
