<svg width="50" height="50" viewBox="0 0 50 50" fill="none" xmlns="http://www.w3.org/2000/svg">
<path d="M27.5 25.4375L33.125 31.0625C33.5833 31.5208 33.8125 32.0942 33.8125 32.7825C33.8125 33.4692 33.5833 34.0625 33.125 34.5625C32.625 35.0625 32.0317 35.3125 31.345 35.3125C30.6567 35.3125 30.0625 35.0625 29.5625 34.5625L24.25 29.25C23.6667 28.6667 23.2292 28.0208 22.9375 27.3125C22.6458 26.6042 22.5 25.8333 22.5 25V17.5C22.5 16.7917 22.74 16.1975 23.22 15.7175C23.6983 15.2392 24.2917 15 25 15C25.7083 15 26.3025 15.2392 26.7825 15.7175C27.2608 16.1975 27.5 16.7917 27.5 17.5V25.4375ZM25 5C25.7083 5 26.3025 5.23917 26.7825 5.7175C27.2608 6.1975 27.5 6.79167 27.5 7.5C27.5 8.20833 27.2608 8.8025 26.7825 9.2825C26.3025 9.76083 25.7083 10 25 10C24.2917 10 23.6983 9.76083 23.22 9.2825C22.74 8.8025 22.5 8.20833 22.5 7.5C22.5 6.79167 22.74 6.1975 23.22 5.7175C23.6983 5.23917 24.2917 5 25 5ZM45 25C45 25.7083 44.76 26.3017 44.28 26.78C43.8017 27.26 43.2083 27.5 42.5 27.5C41.7917 27.5 41.1983 27.26 40.72 26.78C40.24 26.3017 40 25.7083 40 25C40 24.2917 40.24 23.6975 40.72 23.2175C41.1983 22.7392 41.7917 22.5 42.5 22.5C43.2083 22.5 43.8017 22.7392 44.28 23.2175C44.76 23.6975 45 24.2917 45 25ZM25 40C25.7083 40 26.3025 40.24 26.7825 40.72C27.2608 41.1983 27.5 41.7917 27.5 42.5C27.5 43.2083 27.2608 43.8017 26.7825 44.28C26.3025 44.76 25.7083 45 25 45C24.2917 45 23.6983 44.76 23.22 44.28C22.74 43.8017 22.5 43.2083 22.5 42.5C22.5 41.7917 22.74 41.1983 23.22 40.72C23.6983 40.24 24.2917 40 25 40ZM10 25C10 25.7083 9.76083 26.3017 9.2825 26.78C8.8025 27.26 8.20833 27.5 7.5 27.5C6.79167 27.5 6.1975 27.26 5.7175 26.78C5.23917 26.3017 5 25.7083 5 25C5 24.2917 5.23917 23.6975 5.7175 23.2175C6.1975 22.7392 6.79167 22.5 7.5 22.5C8.20833 22.5 8.8025 22.7392 9.2825 23.2175C9.76083 23.6975 10 24.2917 10 25ZM25 50C21.5417 50 18.2917 49.3433 15.25 48.03C12.2083 46.7183 9.5625 44.9375 7.3125 42.6875C5.0625 40.4375 3.28167 37.7917 1.97 34.75C0.656667 31.7083 0 28.4583 0 25C0 21.5417 0.656667 18.2917 1.97 15.25C3.28167 12.2083 5.0625 9.5625 7.3125 7.3125C9.5625 5.0625 12.2083 3.28083 15.25 1.9675C18.2917 0.655833 21.5417 0 25 0C28.4583 0 31.7083 0.655833 34.75 1.9675C37.7917 3.28083 40.4375 5.0625 42.6875 7.3125C44.9375 9.5625 46.7183 12.2083 48.03 15.25C49.3433 18.2917 50 21.5417 50 25C50 28.4583 49.3433 31.7083 48.03 34.75C46.7183 37.7917 44.9375 40.4375 42.6875 42.6875C40.4375 44.9375 37.7917 46.7183 34.75 48.03C31.7083 49.3433 28.4583 50 25 50ZM25 45C30.5833 45 35.3125 43.0625 39.1875 39.1875C43.0625 35.3125 45 30.5833 45 25C45 19.4167 43.0625 14.6875 39.1875 10.8125C35.3125 6.9375 30.5833 5 25 5C19.4167 5 14.6875 6.9375 10.8125 10.8125C6.9375 14.6875 5 19.4167 5 25C5 30.5833 6.9375 35.3125 10.8125 39.1875C14.6875 43.0625 19.4167 45 25 45Z" fill="black"/>
</svg>
