<svg width="40" height="40" viewBox="0 0 40 40" fill="none" xmlns="http://www.w3.org/2000/svg">
<path d="M22 20.35L26.5 24.85C26.8667 25.2167 27.05 25.6753 27.05 26.226C27.05 26.7753 26.8667 27.25 26.5 27.65C26.1 28.05 25.6253 28.25 25.076 28.25C24.5253 28.25 24.05 28.05 23.65 27.65L19.4 23.4C18.9333 22.9333 18.5833 22.4167 18.35 21.85C18.1167 21.2833 18 20.6667 18 20V14C18 13.4333 18.192 12.958 18.576 12.574C18.9587 12.1913 19.4333 12 20 12C20.5667 12 21.042 12.1913 21.426 12.574C21.8087 12.958 22 13.4333 22 14V20.35ZM20 4C20.5667 4 21.042 4.19133 21.426 4.574C21.8087 4.958 22 5.43333 22 6C22 6.56667 21.8087 7.042 21.426 7.426C21.042 7.80867 20.5667 8 20 8C19.4333 8 18.9587 7.80867 18.576 7.426C18.192 7.042 18 6.56667 18 6C18 5.43333 18.192 4.958 18.576 4.574C18.9587 4.19133 19.4333 4 20 4ZM36 20C36 20.5667 35.808 21.0413 35.424 21.424C35.0413 21.808 34.5667 22 34 22C33.4333 22 32.9587 21.808 32.576 21.424C32.192 21.0413 32 20.5667 32 20C32 19.4333 32.192 18.958 32.576 18.574C32.9587 18.1913 33.4333 18 34 18C34.5667 18 35.0413 18.1913 35.424 18.574C35.808 18.958 36 19.4333 36 20ZM20 32C20.5667 32 21.042 32.192 21.426 32.576C21.8087 32.9587 22 33.4333 22 34C22 34.5667 21.8087 35.0413 21.426 35.424C21.042 35.808 20.5667 36 20 36C19.4333 36 18.9587 35.808 18.576 35.424C18.192 35.0413 18 34.5667 18 34C18 33.4333 18.192 32.9587 18.576 32.576C18.9587 32.192 19.4333 32 20 32ZM8 20C8 20.5667 7.80867 21.0413 7.426 21.424C7.042 21.808 6.56667 22 6 22C5.43333 22 4.958 21.808 4.574 21.424C4.19133 21.0413 4 20.5667 4 20C4 19.4333 4.19133 18.958 4.574 18.574C4.958 18.1913 5.43333 18 6 18C6.56667 18 7.042 18.1913 7.426 18.574C7.80867 18.958 8 19.4333 8 20ZM20 40C17.2333 40 14.6333 39.4747 12.2 38.424C9.76667 37.3747 7.65 35.95 5.85 34.15C4.05 32.35 2.62533 30.2333 1.576 27.8C0.525334 25.3667 0 22.7667 0 20C0 17.2333 0.525334 14.6333 1.576 12.2C2.62533 9.76667 4.05 7.65 5.85 5.85C7.65 4.05 9.76667 2.62467 12.2 1.574C14.6333 0.524667 17.2333 0 20 0C22.7667 0 25.3667 0.524667 27.8 1.574C30.2333 2.62467 32.35 4.05 34.15 5.85C35.95 7.65 37.3747 9.76667 38.424 12.2C39.4747 14.6333 40 17.2333 40 20C40 22.7667 39.4747 25.3667 38.424 27.8C37.3747 30.2333 35.95 32.35 34.15 34.15C32.35 35.95 30.2333 37.3747 27.8 38.424C25.3667 39.4747 22.7667 40 20 40ZM20 36C24.4667 36 28.25 34.45 31.35 31.35C34.45 28.25 36 24.4667 36 20C36 15.5333 34.45 11.75 31.35 8.65C28.25 5.55 24.4667 4 20 4C15.5333 4 11.75 5.55 8.65 8.65C5.55 11.75 4 15.5333 4 20C4 24.4667 5.55 28.25 8.65 31.35C11.75 34.45 15.5333 36 20 36Z" fill="black"/>
</svg>
