<svg width="40" height="40" viewBox="0 0 40 40" fill="none" xmlns="http://www.w3.org/2000/svg">
<path d="M20.0045 27C18.0959 27 16.2655 26.2625 14.9159 24.9497C13.5664 23.637 12.8082 21.8565 12.8082 20C12.8082 18.1435 13.5664 16.363 14.9159 15.0503C16.2655 13.7375 18.0959 13 20.0045 13C21.9131 13 23.7436 13.7375 25.0931 15.0503C26.4427 16.363 27.2009 18.1435 27.2009 20C27.2009 21.8565 26.4427 23.637 25.0931 24.9497C23.7436 26.2625 21.9131 27 20.0045 27ZM35.2814 21.94C35.3637 21.3 35.4253 20.66 35.4253 20C35.4253 19.34 35.3637 18.68 35.2814 18L39.6198 14.74C40.0105 14.44 40.1133 13.9 39.8665 13.46L35.7543 6.54C35.5076 6.1 34.9524 5.92 34.5001 6.1L29.3804 8.1C28.3112 7.32 27.2009 6.64 25.9056 6.14L25.1448 0.840004C25.103 0.604438 24.9769 0.390858 24.7887 0.237107C24.6006 0.0833557 24.3625 -0.000639549 24.1168 3.66694e-06H15.8923C15.3783 3.66694e-06 14.9465 0.360004 14.8643 0.840004L14.1035 6.14C12.8082 6.64 11.6979 7.32 10.6287 8.1L5.50899 6.1C5.05665 5.92 4.5015 6.1 4.25477 6.54L0.142553 13.46C-0.124741 13.9 -0.00137409 14.44 0.389286 14.74L4.72767 18C4.64543 18.68 4.58374 19.34 4.58374 20C4.58374 20.66 4.64543 21.3 4.72767 21.94L0.389286 25.26C-0.00137409 25.56 -0.124741 26.1 0.142553 26.54L4.25477 33.46C4.5015 33.9 5.05665 34.06 5.50899 33.9L10.6287 31.88C11.6979 32.68 12.8082 33.36 14.1035 33.86L14.8643 39.16C14.9465 39.64 15.3783 40 15.8923 40H24.1168C24.6308 40 25.0626 39.64 25.1448 39.16L25.9056 33.86C27.2009 33.34 28.3112 32.68 29.3804 31.88L34.5001 33.9C34.9524 34.06 35.5076 33.9 35.7543 33.46L39.8665 26.54C40.1133 26.1 40.0105 25.56 39.6198 25.26L35.2814 21.94Z" fill="white"/>
</svg>
