<svg width="21" height="17" viewBox="0 0 21 17" fill="none" xmlns="http://www.w3.org/2000/svg">
<path d="M19.2937 17L3.21563 0M8.36063 6.73378C7.96037 7.20036 7.7175 7.81324 7.7175 8.48448C7.7175 9.94623 8.86925 11.1312 10.29 11.1312C10.9451 11.1312 11.543 10.8793 11.9971 10.4645M19.3353 11.1312C20.2209 9.72947 20.58 8.58628 20.58 8.58628C20.58 8.58628 18.2384 0.68 10.29 0.68C9.84377 0.68 9.41521 0.704919 9.00375 0.751959M16.0781 14.5627C14.6017 15.5586 12.701 16.2628 10.29 16.2211C2.44058 16.0854 0 8.58628 0 8.58628C0 8.58628 1.13389 4.75782 4.50188 2.4291" stroke="black" stroke-opacity="0.4" stroke-width="2" stroke-linecap="round"/>
</svg>
