<svg width="34" height="40" viewBox="0 0 34 40" fill="none" xmlns="http://www.w3.org/2000/svg">
<mask id="path-1-inside-1_50_82" fill="white">
<path d="M22.6667 0H3.77778C2.77585 0 1.81496 0.468252 1.10649 1.30175C0.398015 2.13524 0 3.2657 0 4.44444V35.5556C0 36.7343 0.398015 37.8648 1.10649 38.6983C1.81496 39.5317 2.77585 40 3.77778 40H30.2222C31.2241 40 32.185 39.5317 32.8935 38.6983C33.602 37.8648 34 36.7343 34 35.5556V13.3333L22.6667 0ZM30.2222 35.5556H3.77778V4.44444H20.7778V15.5556H30.2222M26.4444 24.4444H7.55556V20H26.4444M20.7778 31.1111H7.55556V26.6667H20.7778"/>
</mask>
<path d="M22.6667 0H3.77778C2.77585 0 1.81496 0.468252 1.10649 1.30175C0.398015 2.13524 0 3.2657 0 4.44444V35.5556C0 36.7343 0.398015 37.8648 1.10649 38.6983C1.81496 39.5317 2.77585 40 3.77778 40H30.2222C31.2241 40 32.185 39.5317 32.8935 38.6983C33.602 37.8648 34 36.7343 34 35.5556V13.3333L22.6667 0ZM30.2222 35.5556H3.77778V4.44444H20.7778V15.5556H30.2222M26.4444 24.4444H7.55556V20H26.4444M20.7778 31.1111H7.55556V26.6667H20.7778" fill="white"/>
<path d="M22.6667 0L23.4286 -0.647648L23.1291 -1H22.6667V0ZM3.77778 0V-1V0ZM0 4.44444H-1H0ZM0 35.5556H-1H0ZM34 13.3333H35V12.9658L34.7619 12.6857L34 13.3333ZM3.77778 35.5556H2.77778V36.5556H3.77778V35.5556ZM3.77778 4.44444V3.44444H2.77778V4.44444H3.77778ZM20.7778 4.44444H21.7778V3.44444H20.7778V4.44444ZM20.7778 15.5556H19.7778V16.5556H20.7778V15.5556ZM7.55556 24.4444H6.55556V25.4444H7.55556V24.4444ZM7.55556 20V19H6.55556V20H7.55556ZM7.55556 31.1111H6.55556V32.1111H7.55556V31.1111ZM7.55556 26.6667V25.6667H6.55556V26.6667H7.55556ZM22.6667 -1H3.77778V1H22.6667V-1ZM3.77778 -1C2.45333 -1 1.22329 -0.379715 0.344546 0.654099L1.86842 1.9494C2.40662 1.31622 3.09837 1 3.77778 1V-1ZM0.344546 0.654099C-0.529991 1.68297 -1 3.04827 -1 4.44444H1C1 3.48314 1.32602 2.58752 1.86842 1.9494L0.344546 0.654099ZM-1 4.44444V35.5556H1V4.44444H-1ZM-1 35.5556C-1 36.9517 -0.529991 38.317 0.344546 39.3459L1.86842 38.0506C1.32602 37.4125 1 36.5169 1 35.5556H-1ZM0.344546 39.3459C1.22329 40.3797 2.45333 41 3.77778 41V39C3.09837 39 2.40663 38.6838 1.86842 38.0506L0.344546 39.3459ZM3.77778 41H30.2222V39H3.77778V41ZM30.2222 41C31.5467 41 32.7767 40.3797 33.6555 39.3459L32.1316 38.0506C31.5934 38.6838 30.9016 39 30.2222 39V41ZM33.6555 39.3459C34.53 38.317 35 36.9517 35 35.5556H33C33 36.5169 32.674 37.4125 32.1316 38.0506L33.6555 39.3459ZM35 35.5556V13.3333H33V35.5556H35ZM34.7619 12.6857L23.4286 -0.647648L21.9047 0.647648L33.2381 13.981L34.7619 12.6857ZM30.2222 34.5556H3.77778V36.5556H30.2222V34.5556ZM4.77778 35.5556V4.44444H2.77778V35.5556H4.77778ZM3.77778 5.44444H20.7778V3.44444H3.77778V5.44444ZM19.7778 4.44444V15.5556H21.7778V4.44444H19.7778ZM20.7778 16.5556H30.2222V14.5556H20.7778V16.5556ZM26.4444 23.4444H7.55556V25.4444H26.4444V23.4444ZM8.55556 24.4444V20H6.55556V24.4444H8.55556ZM7.55556 21H26.4444V19H7.55556V21ZM20.7778 30.1111H7.55556V32.1111H20.7778V30.1111ZM8.55556 31.1111V26.6667H6.55556V31.1111H8.55556ZM7.55556 27.6667H20.7778V25.6667H7.55556V27.6667Z" fill="white" mask="url(#path-1-inside-1_50_82)"/>
</svg>
