<svg width="21" height="17" viewBox="0 0 21 17" fill="none" xmlns="http://www.w3.org/2000/svg">
<path d="M19.2928 17L3.21546 0M8.3602 6.73378C7.95996 7.20036 7.71711 7.81324 7.71711 8.48448C7.71711 9.94623 8.8688 11.1312 10.2895 11.1312C10.9445 11.1312 11.5424 10.8793 11.9965 10.4645M19.3344 11.1312C20.2199 9.72947 20.579 8.58628 20.579 8.58628C20.579 8.58628 18.2374 0.68 10.2895 0.68C9.84327 0.68 9.41473 0.704919 9.00329 0.751959M16.0773 14.5627C14.601 15.5586 12.7004 16.2628 10.2895 16.2211C2.44045 16.0854 0 8.58628 0 8.58628C0 8.58628 1.13383 4.75782 4.50165 2.4291" stroke="black" stroke-opacity="0.4" stroke-width="2" stroke-linecap="round"/>
</svg>
