<svg width="35" height="40" viewBox="0 0 35 40" fill="none" xmlns="http://www.w3.org/2000/svg">
<mask id="path-1-inside-1_0_7" fill="white">
<path d="M23.3333 0H3.88889C2.85749 0 1.86834 0.468252 1.13903 1.30175C0.409721 2.13524 0 3.2657 0 4.44444V35.5556C0 36.7343 0.409721 37.8648 1.13903 38.6983C1.86834 39.5317 2.85749 40 3.88889 40H31.1111C32.1425 40 33.1317 39.5317 33.861 38.6983C34.5903 37.8648 35 36.7343 35 35.5556V13.3333L23.3333 0ZM31.1111 35.5556H3.88889V4.44444H21.3889V15.5556H31.1111M27.2222 24.4444H7.77778V20H27.2222M21.3889 31.1111H7.77778V26.6667H21.3889"/>
</mask>
<path d="M23.3333 0H3.88889C2.85749 0 1.86834 0.468252 1.13903 1.30175C0.409721 2.13524 0 3.2657 0 4.44444V35.5556C0 36.7343 0.409721 37.8648 1.13903 38.6983C1.86834 39.5317 2.85749 40 3.88889 40H31.1111C32.1425 40 33.1317 39.5317 33.861 38.6983C34.5903 37.8648 35 36.7343 35 35.5556V13.3333L23.3333 0ZM31.1111 35.5556H3.88889V4.44444H21.3889V15.5556H31.1111M27.2222 24.4444H7.77778V20H27.2222M21.3889 31.1111H7.77778V26.6667H21.3889" fill="white"/>
<path d="M23.3333 0L24.0859 -0.658505L23.7871 -1H23.3333V0ZM3.88889 0V-1V0ZM0 4.44444H-1H0ZM0 35.5556H-1H0ZM35 13.3333H36V12.9576L35.7526 12.6748L35 13.3333ZM3.88889 35.5556H2.88889V36.5556H3.88889V35.5556ZM3.88889 4.44444V3.44444H2.88889V4.44444H3.88889ZM21.3889 4.44444H22.3889V3.44444H21.3889V4.44444ZM21.3889 15.5556H20.3889V16.5556H21.3889V15.5556ZM7.77778 24.4444H6.77778V25.4444H7.77778V24.4444ZM7.77778 20V19H6.77778V20H7.77778ZM7.77778 31.1111H6.77778V32.1111H7.77778V31.1111ZM7.77778 26.6667V25.6667H6.77778V26.6667H7.77778ZM23.3333 -1H3.88889V1H23.3333V-1ZM3.88889 -1C2.54591 -1 1.2898 -0.389158 0.386452 0.643243L1.89161 1.96025C2.44687 1.32566 3.16908 1 3.88889 1V-1ZM0.386452 0.643243C-0.513167 1.67138 -1 3.04041 -1 4.44444H1C1 3.491 1.33261 2.59911 1.89161 1.96025L0.386452 0.643243ZM-1 4.44444V35.5556H1V4.44444H-1ZM-1 35.5556C-1 36.9596 -0.513167 38.3286 0.386452 39.3568L1.89161 38.0397C1.33261 37.4009 1 36.509 1 35.5556H-1ZM0.386452 39.3568C1.2898 40.3892 2.54591 41 3.88889 41V39C3.16908 39 2.44687 38.6743 1.89161 38.0397L0.386452 39.3568ZM3.88889 41H31.1111V39H3.88889V41ZM31.1111 41C32.4541 41 33.7102 40.3892 34.6135 39.3568L33.1084 38.0397C32.5531 38.6743 31.8309 39 31.1111 39V41ZM34.6135 39.3568C35.5132 38.3286 36 36.9596 36 35.5556H34C34 36.509 33.6674 37.4009 33.1084 38.0397L34.6135 39.3568ZM36 35.5556V13.3333H34V35.5556H36ZM35.7526 12.6748L24.0859 -0.658505L22.5808 0.658505L34.2474 13.9918L35.7526 12.6748ZM31.1111 34.5556H3.88889V36.5556H31.1111V34.5556ZM4.88889 35.5556V4.44444H2.88889V35.5556H4.88889ZM3.88889 5.44444H21.3889V3.44444H3.88889V5.44444ZM20.3889 4.44444V15.5556H22.3889V4.44444H20.3889ZM21.3889 16.5556H31.1111V14.5556H21.3889V16.5556ZM27.2222 23.4444H7.77778V25.4444H27.2222V23.4444ZM8.77778 24.4444V20H6.77778V24.4444H8.77778ZM7.77778 21H27.2222V19H7.77778V21ZM21.3889 30.1111H7.77778V32.1111H21.3889V30.1111ZM8.77778 31.1111V26.6667H6.77778V31.1111H8.77778ZM7.77778 27.6667H21.3889V25.6667H7.77778V27.6667Z" fill="white" mask="url(#path-1-inside-1_0_7)"/>
</svg>
