<svg width="20" height="15" viewBox="0 0 20 15" fill="none" xmlns="http://www.w3.org/2000/svg">
<path d="M18 15L3 0M7.8 5.94157C7.42658 6.35326 7.2 6.89403 7.2 7.48631C7.2 8.77609 8.27452 9.82167 9.6 9.82167C10.2111 9.82167 10.7689 9.59939 11.1926 9.23338M18.0388 9.82167C18.865 8.58482 19.2 7.57613 19.2 7.57613C19.2 7.57613 17.0154 0.6 9.6 0.6C9.18369 0.6 8.78387 0.621987 8.4 0.663493M15 12.8494C13.6226 13.7281 11.8493 14.3495 9.6 14.3127C2.27692 14.193 0 7.57613 0 7.57613C0 7.57613 1.05786 4.19808 4.2 2.14332" stroke="black" stroke-opacity="0.4" stroke-width="2" stroke-linecap="round"/>
</svg>
